<svg width="33" height="19" viewBox="0 0 33 19" fill="none" xmlns="http://www.w3.org/2000/svg">
<path d="M17.093 7.1442C16.8699 4.99301 16.113 3.33579 14.8223 2.17255C13.5475 0.993372 11.7309 0.395817 9.37257 0.379883C8.04998 0.379883 6.85487 0.595002 5.78724 1.02524C4.73554 1.45548 3.82726 2.061 3.06239 2.84181C2.31345 3.62261 1.73183 4.56277 1.31753 5.66227C0.919156 6.76177 0.719971 7.98078 0.719971 9.3193C0.719971 10.5782 0.911188 11.7573 1.29362 12.8568C1.67606 13.9404 2.23378 14.8805 2.96678 15.6773C3.71571 16.474 4.624 17.1035 5.69163 17.5656C6.75926 18.0277 7.98624 18.2587 9.37257 18.2587C10.6155 18.2587 11.7229 18.0516 12.695 17.6373C13.667 17.223 14.4797 16.6812 15.133 16.0119C15.8023 15.3267 16.3042 14.5619 16.6388 13.7173C16.9894 12.8728 17.1647 12.0203 17.1647 11.1598H12.0018C11.9221 11.5581 11.8106 11.9326 11.6672 12.2832C11.5397 12.6337 11.3644 12.9365 11.1413 13.1915C10.9342 13.4464 10.6713 13.6456 10.3526 13.789C10.0498 13.9324 9.67533 14.0041 9.22915 14.0041C8.6077 14.0041 8.08981 13.8687 7.67551 13.5978C7.26121 13.3269 6.92658 12.9684 6.67162 12.5222C6.4326 12.076 6.25731 11.5741 6.14577 11.0164C6.03423 10.4586 5.97845 9.89296 5.97845 9.3193C5.97845 8.74565 6.03423 8.17997 6.14577 7.62225C6.25731 7.06453 6.4326 6.56258 6.67162 6.11641C6.92658 5.67023 7.26121 5.3117 7.67551 5.04081C8.08981 4.76992 8.6077 4.63447 9.22915 4.63447C9.77094 4.63447 10.2091 4.73805 10.5438 4.9452C10.8943 5.15235 11.1732 5.39138 11.3804 5.66227C11.5875 5.93316 11.7309 6.21202 11.8106 6.49885C11.8903 6.76974 11.946 6.98486 11.9779 7.1442H17.093Z" fill="black"/>
<path d="M32.72 5.44715H27.8917L25.9317 13.0002H25.8839L23.9479 5.44715H18.9523L23.0157 17.8524H28.6088L32.72 5.44715Z" fill="black"/>
</svg>
