<svg width="42" height="32" viewBox="0 0 42 32" fill="none" xmlns="http://www.w3.org/2000/svg">
<g clip-path="url(#clip0_360_5051)">
<path d="M6.19039 15.0443C6.15969 15.0669 6.12464 15.0829 6.08742 15.0914C6.05019 15.0999 6.0116 15.1007 5.97406 15.0937H4.28153C4.03056 15.0937 4.02335 15.0851 4.02335 14.8335V8.80683C4.0147 8.69213 3.97864 8.66347 3.85821 8.65128H2.50677C2.47963 8.65151 2.45256 8.65439 2.42598 8.65988C2.39888 8.66282 2.37362 8.67487 2.35435 8.69403C2.33507 8.71319 2.32295 8.73832 2.31999 8.76526C2.31285 8.83816 2.30994 8.9114 2.31132 8.98462V14.8485C2.31132 15.0729 2.29762 15.0887 2.0719 15.0887H0.323115C0.185375 15.0801 0.166621 15.06 0.160851 14.9174V0.558629C0.14564 0.473673 0.161785 0.386106 0.206297 0.312022C0.255336 0.312022 0.312298 0.30127 0.372874 0.30127H2.10363C2.28681 0.30127 2.30989 0.326364 2.31566 0.512031V6.05767C2.31566 6.13796 2.31566 6.21896 2.32288 6.29781C2.32288 6.32576 2.33405 6.35258 2.35393 6.37235C2.37381 6.39211 2.40077 6.40319 2.42889 6.40319C2.46184 6.40796 2.49511 6.41012 2.52841 6.40965L3.67646 6.41897C3.75718 6.41863 3.83781 6.4141 3.91804 6.40536C3.94616 6.40536 3.97314 6.39425 3.99302 6.37449C4.01291 6.35473 4.02406 6.32793 4.02406 6.29998C4.02942 6.2404 4.03159 6.18057 4.03055 6.12076V0.580134C4.01306 0.487914 4.03165 0.39253 4.08249 0.313455C4.13657 0.313455 4.20219 0.302702 4.26781 0.302702H5.97982C6.19184 0.302702 6.20844 0.322783 6.20844 0.535691V14.9331C6.20447 14.9705 6.19843 15.0076 6.19039 15.0443V15.0443Z" fill="white"/>
<path d="M27.9907 0.337561C28.029 0.400645 28.0002 0.442934 27.98 0.497415C27.8131 0.898858 27.6482 1.30006 27.4852 1.70103L26.9314 3.05303C26.6573 3.71828 26.3848 4.38568 26.1064 5.05379C26.0695 5.13955 26.0617 5.2349 26.084 5.32548C26.1706 5.6961 26.2528 6.06241 26.3393 6.43733C26.4388 6.86745 26.5405 7.29328 26.6415 7.72196C26.7295 8.09808 26.8163 8.47466 26.9018 8.85173C26.9898 9.23597 27.0742 9.6195 27.1614 10.0023C27.2441 10.3665 27.3271 10.7304 27.4102 11.0941C27.5256 11.6016 27.6432 12.1077 27.7586 12.6153C27.8422 12.9787 27.9273 13.3429 28.0095 13.7063C28.097 14.0886 28.1843 14.4722 28.2713 14.8569C28.3182 15.0619 28.2937 15.0956 28.0852 15.097H26.4338C26.4136 15.0981 26.3934 15.0981 26.3732 15.097C26.2427 15.0884 26.2037 15.059 26.1763 14.9393C26.0797 14.5243 25.9867 14.1078 25.8879 13.6927C25.8158 13.3938 25.7437 13.097 25.6759 12.7973C25.6348 12.6224 25.5994 12.4453 25.5605 12.2712C25.5331 12.1471 25.5035 12.0238 25.4739 11.9005C25.4018 11.6023 25.3297 11.3048 25.2619 11.0066C25.1941 10.7084 25.1177 10.3958 25.0499 10.0905C25.0203 9.96071 24.9893 9.83024 24.9576 9.70121C24.8855 9.39726 24.809 9.09259 24.7362 8.78864C24.7153 8.69831 24.7023 8.60512 24.6814 8.51408C24.6723 8.48233 24.6584 8.45213 24.6403 8.42447C24.6349 8.41827 24.6283 8.4133 24.6208 8.40988C24.6134 8.40646 24.6052 8.4047 24.597 8.4047C24.5888 8.4047 24.5807 8.40646 24.5732 8.40988C24.5657 8.4133 24.5591 8.41827 24.5537 8.42447C24.5384 8.45356 24.5247 8.48348 24.5126 8.51408C24.3323 8.9356 24.1521 9.36286 23.9732 9.78581C23.9434 9.86054 23.9294 9.94059 23.9321 10.0209V14.8067C23.9334 14.8732 23.931 14.9397 23.9249 15.006C23.9238 15.0263 23.9154 15.0456 23.9013 15.0603C23.8871 15.075 23.8681 15.0842 23.8477 15.0863C23.7999 15.0927 23.7518 15.0958 23.7035 15.0956H22.016C21.7946 15.0956 21.7795 15.0777 21.7795 14.8511V1.83364C21.7795 1.42718 21.7636 1.02073 21.7593 0.614982C21.7593 0.31605 21.7643 0.311035 22.06 0.311035H23.7908C23.9033 0.318204 23.9264 0.344011 23.935 0.460859V5.22655C23.9356 5.29274 23.9404 5.35883 23.9495 5.42441C23.9525 5.43214 23.9574 5.43903 23.9637 5.44451C23.9699 5.45 23.9774 5.45392 23.9855 5.45595C23.9936 5.45799 24.0021 5.45807 24.0102 5.4562C24.0184 5.45432 24.026 5.45055 24.0324 5.44519C24.0649 5.4032 24.0923 5.35747 24.1138 5.30899C24.2254 5.01651 24.3348 4.72285 24.442 4.42798C24.548 4.15342 24.641 3.87599 24.7427 3.60143C24.874 3.243 25.0073 2.88886 25.14 2.53187C25.2727 2.17487 25.4061 1.82003 25.5381 1.46303C25.6564 1.14689 25.7804 0.831479 25.8908 0.506024C25.9564 0.312471 25.9968 0.311035 26.185 0.311035H27.8977C27.9294 0.317335 27.9605 0.326208 27.9907 0.337561V0.337561Z" fill="white"/>
<path d="M10.8829 0.295995H11.9308C12.1702 0.295995 12.2041 0.286668 12.2365 0.549756C12.269 0.812844 12.3252 1.10245 12.367 1.37916C12.4348 1.84154 12.4976 2.30392 12.5661 2.76558C12.6028 3.01648 12.649 3.26739 12.6887 3.51542C12.7053 3.62725 12.7154 3.7405 12.7319 3.85234C12.773 4.11686 12.8178 4.37852 12.8603 4.64089C12.8971 4.87817 12.9324 5.11474 12.9663 5.35274C13.0226 5.72264 13.081 6.08966 13.1358 6.46028C13.1747 6.72337 13.2079 6.98646 13.2418 7.24883C13.2757 7.5112 13.3283 7.77501 13.3702 8.03738C13.4084 8.27395 13.4423 8.51195 13.4762 8.74924C13.5243 9.06513 13.5723 9.38102 13.6204 9.69692C13.6637 9.98367 13.7062 10.2769 13.7495 10.5679C13.7928 10.859 13.8375 11.1342 13.88 11.4174C13.9226 11.7005 13.9615 11.9722 14.0019 12.2489C14.0091 12.3013 14.0156 12.3543 14.025 12.4067C14.0675 12.6633 14.1115 12.9192 14.1533 13.1766C14.1829 13.3673 14.2081 13.5601 14.2363 13.7501C14.2745 14.0203 14.3084 14.2913 14.3495 14.5615C14.3646 14.6605 14.3863 14.7587 14.4021 14.8576C14.4102 14.8968 14.4141 14.9366 14.4137 14.9766C14.4144 14.9971 14.4074 15.0171 14.3941 15.0328C14.3807 15.0484 14.362 15.0585 14.3415 15.0612C14.2885 15.068 14.235 15.0711 14.1815 15.0705H12.5949C12.3267 15.0705 12.3065 15.0526 12.2985 14.7902C12.2933 14.7179 12.2829 14.646 12.2675 14.5752C12.2509 14.4562 12.2343 14.3372 12.2185 14.2167C12.2199 14.1813 12.2162 14.1458 12.2077 14.1114C12.1622 13.8153 12.1146 13.5185 12.0728 13.2217C12.031 12.9249 11.9913 12.5995 11.9509 12.2898C11.9496 12.2498 11.9445 12.2099 11.9358 12.1708C11.9331 12.1438 11.921 12.1185 11.9017 12.0993C11.8824 12.0801 11.857 12.0681 11.8298 12.0654C11.7834 12.0599 11.7366 12.0575 11.6899 12.0583H9.93676C9.8394 12.0676 9.80984 12.0927 9.78532 12.1887C9.77883 12.2138 9.77451 12.2403 9.77018 12.2676L9.64614 13.1995C9.64721 13.2264 9.64503 13.2534 9.63965 13.2798C9.56321 13.8146 9.48653 14.3494 9.4096 14.8841C9.41062 14.8977 9.40889 14.9114 9.40454 14.9243C9.3793 15.0454 9.35192 15.0677 9.23004 15.0677C8.81394 15.0677 8.39709 15.0626 7.98099 15.0626C7.81224 15.0626 7.64495 15.0676 7.4762 15.0698C7.35 15.0698 7.31322 15.0382 7.32692 14.92C7.34206 14.7809 7.36368 14.6418 7.38387 14.5042L7.5144 13.6131C7.54325 13.4153 7.57138 13.2174 7.60312 13.0196C7.64638 12.7429 7.69327 12.4669 7.73798 12.1902C7.76971 11.9928 7.80047 11.7952 7.83028 11.5973C7.87139 11.3106 7.90961 11.0288 7.95216 10.7457C7.9911 10.4876 8.03653 10.2317 8.0762 9.97506C8.11946 9.68832 8.15768 9.39369 8.20239 9.10408C8.24061 8.84744 8.28388 8.59008 8.32427 8.33344C8.3423 8.21588 8.35384 8.09545 8.37187 7.97501C8.41009 7.72411 8.44902 7.47321 8.48869 7.22446C8.53773 6.90832 8.58533 6.59291 8.63293 6.27678C8.67547 6.0058 8.71946 5.73697 8.75985 5.466C8.80311 5.17925 8.84349 4.88606 8.88604 4.59501C8.88706 4.56852 8.8902 4.54214 8.89541 4.51615C8.96753 4.0552 9.04614 3.59498 9.11681 3.13261C9.18748 2.67023 9.25168 2.20929 9.32019 1.74691C9.35841 1.49028 9.40311 1.23293 9.44277 0.97629C9.45791 0.884531 9.46946 0.792055 9.481 0.69958C9.47925 0.665768 9.48289 0.631895 9.4918 0.59922C9.55454 0.240789 9.56393 0.275202 9.8697 0.273768H10.8793L10.8829 0.295995ZM10.8692 9.77935H11.3928C11.4396 9.78 11.4865 9.77642 11.5327 9.76861C11.5525 9.76487 11.5704 9.75452 11.5836 9.73927C11.5967 9.72403 11.6042 9.70479 11.6048 9.68474C11.609 9.65189 11.609 9.61865 11.6048 9.58581C11.5759 9.37075 11.5456 9.14994 11.5161 8.93202L11.3553 7.70332C11.3445 7.62447 11.3307 7.54562 11.3206 7.46605C11.2774 7.14203 11.2348 6.82086 11.1937 6.49397C11.1555 6.20364 11.1216 5.91189 11.0877 5.62084C11.0668 5.45525 11.0473 5.29037 11.0221 5.1262C11.0041 5.01437 10.9796 4.90399 10.955 4.79359C10.9464 4.75344 10.9276 4.71472 10.8764 4.71759C10.8252 4.72046 10.8086 4.75773 10.7978 4.79788C10.787 4.83802 10.7755 4.90325 10.7668 4.95486C10.7531 5.05379 10.7437 5.15272 10.7286 5.25165C10.6853 5.56778 10.6377 5.87175 10.5959 6.18358C10.5577 6.47032 10.5288 6.75204 10.4899 7.0352C10.4178 7.54346 10.3457 8.051 10.2735 8.55854C10.2685 8.59868 10.2663 8.63882 10.2606 8.67825C10.2418 8.81588 10.2202 8.95497 10.2043 9.09404C10.1819 9.27182 10.1596 9.45246 10.1459 9.63024C10.1387 9.72487 10.1798 9.76574 10.2721 9.77362H10.4163C10.5613 9.78079 10.712 9.78008 10.8692 9.78008V9.77935Z" fill="white"/>
<path d="M20.7475 5.17587C20.6893 5.2198 20.6159 5.23912 20.5434 5.22963H18.9879C18.9615 5.2312 18.935 5.2312 18.9085 5.22963C18.8025 5.21816 18.7773 5.19163 18.7708 5.09413V3.29123C18.77 3.12434 18.7526 2.95794 18.7189 2.79445C18.6824 2.63828 18.6128 2.49163 18.5148 2.36433C18.4427 2.28102 18.3524 2.21506 18.2509 2.17138C18.1495 2.1277 18.0394 2.10745 17.9289 2.11214C17.8184 2.11683 17.7104 2.14634 17.6131 2.19847C17.5157 2.25059 17.4315 2.32396 17.3667 2.41308C17.258 2.58178 17.1878 2.77217 17.1612 2.9708C17.1358 3.20264 17.1252 3.43585 17.1295 3.66902V11.6979C17.1277 11.8715 17.1393 12.045 17.1641 12.2169C17.1931 12.402 17.2627 12.5785 17.3682 12.7337C17.4526 12.8588 17.5756 12.9532 17.7187 13.0027C17.8617 13.0522 18.0172 13.0542 18.1615 13.0083C18.271 12.9769 18.3718 12.9207 18.456 12.8443C18.5401 12.7678 18.6054 12.6731 18.6468 12.5674C18.7308 12.3628 18.7723 12.1433 18.7687 11.9222V10.1573C18.7687 9.90286 18.7802 9.8921 19.0463 9.89066H20.5535C20.7388 9.89568 20.759 9.91289 20.759 10.1014C20.759 10.7624 20.772 11.424 20.7504 12.0843C20.7393 12.8108 20.4973 13.5152 20.0588 14.0965C19.7554 14.5099 19.3283 14.8175 18.8386 14.9754C18.6346 15.0481 18.42 15.0874 18.2033 15.0915C17.9682 15.0915 17.7331 15.1001 17.4987 15.0915C17.0676 15.0688 16.6507 14.9306 16.2922 14.6915C15.9548 14.469 15.6749 14.1706 15.4751 13.8205C15.2392 13.4237 15.0818 12.9857 15.0114 12.5302C14.9669 12.2403 14.9449 11.9474 14.9458 11.6541V3.34357C14.9379 2.63929 15.1138 1.945 15.4564 1.32847C15.7093 0.860134 16.108 0.485872 16.5929 0.26177C16.8529 0.135497 17.134 0.0579729 17.4223 0.033091C17.5896 0.0223381 17.7569 -0.0048955 17.9271 0.00012253C18.4128 -0.00240742 18.8908 0.121142 19.3138 0.358553C19.8058 0.654062 20.1914 1.09633 20.4158 1.62238C20.5681 1.97833 20.6749 2.35186 20.7338 2.73423C20.7457 2.81372 20.7512 2.89403 20.7504 2.97438V5.03607C20.752 5.08269 20.7511 5.12936 20.7475 5.17587Z" fill="white"/>
<path d="M28.7019 17.2234C28.7219 17.2526 28.736 17.2854 28.7433 17.3199C28.7506 17.3545 28.751 17.3902 28.7444 17.4249V31.6596C28.7444 31.7313 28.7444 31.803 28.7394 31.879C28.7406 31.8927 28.7389 31.9065 28.7343 31.9195C28.7298 31.9325 28.7224 31.9444 28.7129 31.9544C28.7033 31.9644 28.6918 31.9722 28.6789 31.9774C28.6661 31.9825 28.6523 31.9849 28.6384 31.9843C28.5905 31.9898 28.5423 31.992 28.4942 31.9908H26.9834C26.8435 31.9908 26.8067 31.9678 26.7714 31.8152C26.6517 31.3506 26.5153 30.8904 26.387 30.4273C26.281 30.061 26.1901 29.6904 26.0891 29.3269C26.017 29.076 25.9449 28.8251 25.8771 28.5771C25.8094 28.3291 25.7459 28.1011 25.6803 27.8602C25.6038 27.5842 25.5259 27.3083 25.4502 27.0316C25.3781 26.7749 25.3139 26.5168 25.2382 26.2595C25.1624 26.0021 25.1019 25.7706 25.0341 25.5225C24.9601 25.2592 24.8863 24.9964 24.8127 24.734C24.7406 24.4645 24.6641 24.1935 24.5913 23.9247C24.5776 23.873 24.5682 23.8193 24.5545 23.7691C24.5474 23.7368 24.5375 23.7051 24.525 23.6745C24.5084 23.6379 24.4824 23.6028 24.4348 23.6071C24.3872 23.6114 24.3721 23.6523 24.3692 23.6931C24.3692 23.7533 24.3641 23.8128 24.3641 23.8731V31.861C24.3577 31.9492 24.331 31.975 24.238 31.9822C24.1978 31.9843 24.1576 31.9843 24.1175 31.9822H22.6471C22.3961 31.9822 22.3875 31.9729 22.3875 31.722V17.3517C22.3875 17.2356 22.417 17.2127 22.5317 17.2041H24.1024C24.3036 17.2041 24.3144 17.2242 24.3714 17.4242C24.4392 17.6822 24.5156 17.9389 24.5834 18.1962C24.662 18.4787 24.7377 18.7618 24.8163 19.0436C24.9223 19.402 25.0197 19.7604 25.1185 20.1231C25.2173 20.4859 25.3168 20.8601 25.417 21.2235C25.4892 21.4802 25.5656 21.7354 25.6334 21.992C25.6983 22.2235 25.7581 22.4551 25.8209 22.6866L26.0329 23.4752C26.105 23.7512 26.1822 24.0279 26.2586 24.3046C26.3235 24.5426 26.3898 24.7792 26.4569 25.0171L26.5629 25.4215L26.5839 25.4996C26.5968 25.5469 26.6185 25.5871 26.6762 25.5899C26.7338 25.5928 26.7533 25.5498 26.7591 25.4731V17.4069C26.7591 17.2234 26.7757 17.2041 26.9487 17.2026H28.5598C28.6077 17.2057 28.6552 17.2127 28.7019 17.2234Z" fill="white"/>
<path d="M9.25305 17.2175C9.27498 17.2476 9.29051 17.2818 9.29869 17.318C9.30687 17.3543 9.30755 17.3918 9.30065 17.4283V23.0348C9.29743 23.0945 9.29743 23.1544 9.30065 23.2141C9.30786 23.29 9.33886 23.3194 9.41747 23.3266C9.46541 23.331 9.51357 23.3327 9.56171 23.3316H10.7704C11.0141 23.3316 11.0278 23.3137 11.0264 23.0671C11.022 21.4781 11.0182 19.8895 11.0148 18.3014V17.3989C11.0168 17.3494 11.0214 17.3002 11.0285 17.2512C11.0575 17.2305 11.0904 17.2158 11.1252 17.208C11.16 17.2003 11.1961 17.1996 11.2312 17.206H12.9035C12.9562 17.206 13.0095 17.206 13.0643 17.2111C13.1415 17.2182 13.1703 17.2476 13.1768 17.325C13.179 17.3649 13.179 17.4049 13.1768 17.4447V31.6644C13.1768 31.7361 13.1768 31.8078 13.1703 31.8838C13.1703 31.9117 13.1592 31.9385 13.1393 31.9583C13.1194 31.9781 13.0924 31.9892 13.0643 31.9892C13.0165 31.9948 12.9683 31.9972 12.9201 31.9963H11.2254C11.004 31.9963 10.9925 31.9827 10.991 31.7519V25.7094C10.9802 25.6041 10.9456 25.5661 10.8425 25.556C10.7884 25.551 10.7365 25.556 10.6817 25.556H9.56604C9.2884 25.556 9.27756 25.5632 9.27756 25.8328V31.8587C9.27107 31.9712 9.248 31.9935 9.12901 32.0021H7.39825C7.14296 32.0021 7.13574 31.9949 7.13574 31.7454V17.4469C7.13574 17.2318 7.14657 17.2182 7.36148 17.2175H9.09224C9.14543 17.2082 9.19985 17.2082 9.25305 17.2175Z" fill="white"/>
<path d="M29.964 24.5844V20.2789C29.9549 19.8716 30.0035 19.465 30.1082 19.071C30.2336 18.5841 30.4661 18.1309 30.7889 17.7441C31.0859 17.4034 31.474 17.1534 31.9082 17.023C32.4041 16.8709 32.9291 16.837 33.4406 16.924C33.8216 16.9818 34.1841 17.126 34.5 17.3455C34.8365 17.5801 35.1117 17.8913 35.3026 18.2531C35.445 18.5033 35.555 18.7704 35.63 19.0481C35.6847 19.2471 35.725 19.4498 35.7505 19.6545C35.7822 19.9822 35.7837 20.3076 35.7837 20.6345V22.0761C35.7837 22.3227 35.7656 22.3392 35.5211 22.3406H33.8372C33.6252 22.3406 33.605 22.3241 33.6043 22.1141V19.8718C33.5964 19.6841 33.5456 19.5007 33.4558 19.3355C33.4015 19.2232 33.3147 19.1295 33.2065 19.0665C33.0983 19.0035 32.9737 18.9742 32.8486 18.9821C32.7403 18.9844 32.6344 19.0148 32.5416 19.0702C32.4487 19.1257 32.3721 19.2043 32.3192 19.2983C32.223 19.444 32.1648 19.6113 32.1498 19.785C32.1389 19.9384 32.1223 20.0911 32.1223 20.2452V28.8153C32.1223 28.9888 32.1375 29.1616 32.1498 29.3358C32.1669 29.5163 32.2352 29.6883 32.3466 29.8318C32.4118 29.9212 32.4989 29.9925 32.5996 30.0388C32.7004 30.0852 32.8115 30.1051 32.9222 30.0966C33.0328 30.0881 33.1395 30.0515 33.2319 29.9903C33.3243 29.9292 33.3994 29.8455 33.45 29.7473C33.5552 29.5379 33.6109 29.3074 33.613 29.0734V26.5106C33.613 26.3242 33.5899 26.3056 33.401 26.2998H32.9986C32.9503 26.3014 32.902 26.2986 32.8543 26.2912C32.8306 26.2902 32.8081 26.2804 32.7913 26.2636C32.7744 26.2469 32.7645 26.2245 32.7635 26.2009C32.7569 26.1608 32.753 26.1204 32.7519 26.0798C32.7519 25.6248 32.7519 25.1708 32.7519 24.7177V24.6776C32.7519 24.5177 32.7764 24.4984 32.9416 24.4934H35.4606C35.5275 24.4922 35.5945 24.4953 35.661 24.5027C35.6891 24.5027 35.7161 24.5138 35.736 24.5335C35.7559 24.5533 35.7671 24.5801 35.7671 24.6081C35.7724 24.6609 35.7746 24.7141 35.7735 24.7672V31.5774C35.7735 31.8269 35.7671 31.8333 35.5118 31.834H34.6053C34.575 31.8349 34.5454 31.8259 34.5208 31.8084C34.4961 31.791 34.478 31.766 34.469 31.7373C34.4178 31.5996 34.3557 31.4656 34.3125 31.3258C34.2692 31.186 34.2115 31.1638 34.1005 31.2792C33.9575 31.4392 33.7918 31.5775 33.6087 31.6899C33.2978 31.8773 32.9436 31.982 32.5803 31.9939C32.2981 32.0008 32.0164 31.9675 31.7438 31.895C31.5406 31.8459 31.3488 31.7583 31.1791 31.6369C30.722 31.3131 30.3751 30.8585 30.1846 30.3336C30.0357 29.911 29.9639 29.4652 29.9726 29.0175V24.5952L29.964 24.5844Z" fill="white"/>
<path d="M21.4067 31.9636C21.3209 31.9722 21.2625 31.9837 21.2033 31.9837H19.4914C19.3377 31.9837 19.3125 31.9608 19.293 31.8016C19.2548 31.4855 19.2007 31.1701 19.156 30.8539C19.1135 30.5557 19.0745 30.2589 19.0363 29.9607C19.0024 29.6962 18.9714 29.4345 18.9368 29.1671C18.918 29.0238 18.8776 28.9879 18.7247 28.9808H16.9348C16.8375 28.9879 16.8065 29.0152 16.7834 29.1113C16.7762 29.1442 16.7719 29.1765 16.7661 29.2102C16.7214 29.5335 16.6781 29.8553 16.6334 30.1808C16.593 30.479 16.5541 30.7758 16.5137 31.074C16.4906 31.2453 16.469 31.4174 16.4416 31.5887C16.4279 31.6877 16.4099 31.7866 16.3911 31.8848C16.3873 31.9118 16.3736 31.9364 16.3528 31.9541C16.3319 31.9718 16.3053 31.9813 16.2779 31.9808H14.5291C14.4542 31.9941 14.377 31.979 14.3127 31.9386C14.3132 31.7871 14.3284 31.6361 14.3582 31.4876C14.4072 31.1292 14.4642 30.7758 14.5183 30.4202L14.5976 29.9062C14.6414 29.6362 14.6844 29.3664 14.7267 29.0969C14.7599 28.8926 14.7923 28.6883 14.8233 28.484C14.8615 28.2259 14.8954 27.9679 14.9344 27.7112C14.982 27.4015 15.0353 27.0918 15.0829 26.7793C15.1233 26.5162 15.1551 26.2531 15.1962 25.9907C15.207 25.919 15.2185 25.8474 15.2301 25.7757C15.2467 25.6631 15.2625 25.5513 15.2798 25.4388V25.4001C15.3231 25.1291 15.3678 24.8603 15.4111 24.59C15.4471 24.3596 15.4824 24.1291 15.5171 23.8982C15.5697 23.5549 15.6231 23.2129 15.6728 22.8695C15.7161 22.5728 15.7543 22.2745 15.7976 21.9777C15.8366 21.7147 15.8834 21.4516 15.9245 21.1892C15.9656 20.9268 16.0017 20.663 16.0414 20.4007C16.04 20.3675 16.0429 20.3342 16.05 20.3017C16.0911 20.0451 16.1336 19.7877 16.174 19.5311C16.2144 19.2745 16.2505 19.0171 16.2908 18.7605C16.3406 18.4443 16.3969 18.1289 16.4416 17.8128C16.4567 17.7203 16.4668 17.6271 16.4798 17.5346C16.4885 17.4759 16.4928 17.4149 16.5051 17.3569C16.5303 17.2336 16.5555 17.2135 16.6795 17.207H18.9555C19.1791 17.207 19.1762 17.2278 19.2022 17.4271C19.2404 17.7139 19.2945 17.9927 19.3384 18.2766C19.3824 18.5605 19.4221 18.8565 19.4654 19.1476C19.4748 19.2142 19.4885 19.2795 19.4993 19.3447C19.5151 19.4501 19.531 19.5555 19.5462 19.6609C19.5534 19.7132 19.5591 19.7662 19.5664 19.8186C19.6168 20.1555 19.6673 20.4917 19.7185 20.8272C19.7611 21.0975 19.8072 21.3663 19.8512 21.6372C19.8848 21.8542 19.9173 22.0719 19.9485 22.2903C19.9889 22.567 20.0207 22.8452 20.0661 23.1219C20.1115 23.3986 20.1591 23.6882 20.2024 23.9713C20.2428 24.2344 20.2745 24.4975 20.3084 24.7642V24.8029C20.3517 25.066 20.3964 25.3291 20.4368 25.5915C20.4771 25.8538 20.514 26.1176 20.5522 26.38C20.5508 26.407 20.5537 26.4341 20.5608 26.4603C20.6041 26.7234 20.6495 26.9865 20.6899 27.2488C20.7353 27.5356 20.7757 27.8288 20.819 28.1198C20.8555 28.3702 20.893 28.6209 20.9315 28.8718C20.9796 29.1829 21.0276 29.4936 21.0757 29.8037C21.1182 30.0804 21.1623 30.3579 21.2062 30.6331C21.243 30.8697 21.2783 31.1077 21.3122 31.345C21.3331 31.4826 21.3548 31.6217 21.3735 31.7658C21.3929 31.8301 21.4041 31.8966 21.4067 31.9636V31.9636ZM17.8341 26.699H18.3389C18.3872 26.6992 18.4354 26.6961 18.4832 26.6897C18.4984 26.6886 18.5132 26.6845 18.5268 26.6777C18.5404 26.6708 18.5525 26.6613 18.5624 26.6498C18.5722 26.6382 18.5797 26.6249 18.5843 26.6104C18.5889 26.596 18.5905 26.5807 18.5892 26.5657C18.5873 26.519 18.5822 26.4726 18.574 26.4266C18.5646 26.3549 18.5517 26.2832 18.5423 26.2115C18.4947 25.8481 18.4479 25.4839 18.3981 25.1205C18.357 24.8043 18.3122 24.4889 18.2719 24.1728C18.2315 23.8566 18.1997 23.5642 18.1572 23.2602C18.1146 22.9563 18.0692 22.6401 18.0259 22.3283C18.0272 22.3013 18.0249 22.2743 18.0188 22.248C17.9914 22.0774 17.9647 21.9061 17.9351 21.7355C17.9236 21.6724 17.8861 21.6387 17.8486 21.6437C17.8286 21.6473 17.8102 21.657 17.796 21.6716C17.7819 21.6861 17.7728 21.7047 17.7699 21.7247C17.7591 21.7701 17.7509 21.816 17.7454 21.8623C17.7346 21.934 17.7267 22.0057 17.7159 22.0774C17.6726 22.3742 17.6279 22.6702 17.5846 22.967C17.5859 22.994 17.5835 23.021 17.5774 23.0473C17.5623 23.1663 17.5478 23.2853 17.532 23.4057C17.5211 23.4846 17.5089 23.5634 17.4981 23.6423C17.48 23.7749 17.4634 23.9068 17.4454 24.0394C17.436 24.1054 17.4245 24.1713 17.4159 24.2373C17.3748 24.5534 17.3351 24.8688 17.2933 25.185C17.2327 25.6345 17.1692 26.0832 17.1087 26.5327C17.095 26.6381 17.1317 26.6854 17.2349 26.6961H17.3791L17.8341 26.699Z" fill="white"/>
<path d="M2.24453e-05 24.4478V20.3036C-0.000842541 20.0236 0.0232949 19.7442 0.072142 19.4685C0.140483 19.0873 0.261838 18.7174 0.432718 18.3695C0.602218 17.9968 0.860816 17.6709 1.18598 17.4203C1.51114 17.1697 1.89301 17.0019 2.29834 16.9315C2.57545 16.8802 2.85784 16.8628 3.13919 16.8799C3.53649 16.8947 3.92548 16.9973 4.2779 17.1802C4.75403 17.4348 5.13939 17.8294 5.38126 18.31C5.50667 18.5462 5.60534 18.7955 5.67548 19.0534C5.76294 19.3552 5.81285 19.6664 5.82406 19.9803V21.8441C5.82406 22.0929 5.81323 22.0986 5.55939 22.0986H4.07094C3.81998 22.0986 3.80844 22.0879 3.79474 21.8449C3.78969 21.7445 3.78968 21.6449 3.78968 21.5445V20.1631C3.79204 20.0363 3.78699 19.9094 3.77454 19.7832C3.75079 19.5706 3.66193 19.3704 3.51997 19.2097C3.41216 19.1 3.27318 19.0258 3.12172 18.997C2.97025 18.9682 2.81355 18.9861 2.67263 19.0484C2.57247 19.1037 2.48542 19.1797 2.41734 19.2713C2.32217 19.3929 2.25785 19.5356 2.22983 19.6871C2.18835 19.8952 2.16567 20.1065 2.16205 20.3186V28.5009C2.15272 28.7277 2.17161 28.9548 2.2183 29.1769C2.26521 29.3726 2.36065 29.5535 2.49593 29.7031C2.54485 29.7585 2.60433 29.8037 2.67091 29.8362C2.7375 29.8687 2.8099 29.8878 2.88392 29.8923C3.01053 29.9132 3.14043 29.9007 3.26065 29.856C3.38087 29.8114 3.48719 29.7361 3.569 29.6378C3.68679 29.4905 3.76029 29.3131 3.78103 29.126C3.80194 28.9267 3.81059 28.726 3.81204 28.5267V27.0213C3.81204 26.7747 3.82357 26.7647 4.07598 26.7632H5.58679C5.81107 26.7632 5.82693 26.7783 5.82837 27.0012C5.82837 27.6091 5.83486 28.2199 5.82837 28.8228C5.82237 29.4802 5.64311 30.1246 5.30843 30.6916C5.03717 31.1656 4.61975 31.5404 4.11781 31.7605C3.95665 31.8263 3.78953 31.8767 3.61876 31.911C3.32312 31.9732 3.02017 31.9937 2.71878 31.972C2.249 31.9634 1.7907 31.8262 1.39435 31.5754C0.997995 31.3246 0.678953 30.9699 0.472376 30.5504C0.287612 30.202 0.156816 29.8279 0.0844003 29.4407C0.0259641 29.1056 0.000127627 28.7657 0.007241 28.4256V24.4413L2.24453e-05 24.4478Z" fill="white"/>
<path d="M37.0174 17.1719C37.096 17.1719 37.1682 17.1611 37.241 17.1611H41.6898C41.9703 17.1611 41.9703 17.1611 41.9703 17.4393V19.101C41.9715 19.1543 41.9692 19.2078 41.9631 19.2608C41.9631 19.2888 41.9519 19.3156 41.932 19.3353C41.9122 19.3551 41.8852 19.3662 41.8571 19.3662C41.7903 19.3733 41.7231 19.3762 41.6559 19.3748H39.4628C39.4024 19.3738 39.342 19.376 39.2819 19.3813C39.2511 19.3818 39.2217 19.3944 39.2001 19.4162C39.1785 19.4381 39.1664 19.4675 39.1664 19.4981C39.1603 19.5646 39.158 19.6314 39.1593 19.6981V23.139C39.1679 23.2588 39.196 23.2824 39.3237 23.2925H40.9102C41.1626 23.2925 41.1676 23.2996 41.1684 23.5527V25.4165C41.1684 25.6416 41.1554 25.6552 40.9311 25.6567H39.4405C39.1643 25.6567 39.1521 25.6653 39.1521 25.9334V29.4768C39.1521 29.7464 39.1592 29.7528 39.4405 29.7528H41.6364C41.7035 29.7528 41.7712 29.7528 41.8369 29.7593C41.9198 29.7679 41.9537 29.8044 41.9617 29.8897C41.9644 29.9375 41.9644 29.9853 41.9617 30.0331V31.7177C41.9624 31.7709 41.96 31.824 41.9544 31.8769C41.9527 31.9043 41.941 31.9301 41.9215 31.9495C41.9019 31.9689 41.876 31.9805 41.8484 31.9822C41.7951 31.9888 41.7414 31.9917 41.6876 31.9909H37.2619C36.9835 31.9909 36.9792 31.9909 36.9792 31.712V17.435C36.9699 17.3455 36.983 17.2551 37.0174 17.1719V17.1719Z" fill="white"/>
<path d="M33.4572 10.9316C33.5343 10.9381 33.5856 10.9467 33.6375 10.9467H34.4221C34.4456 10.9461 34.4685 10.9543 34.4863 10.9695C34.5042 10.9847 34.5157 11.006 34.5188 11.0291C34.5209 11.0425 34.5202 11.0561 34.5167 11.0691C34.5133 11.0822 34.507 11.0943 34.4986 11.1049C34.4901 11.1154 34.4795 11.1241 34.4674 11.1303C34.4554 11.1365 34.4422 11.1401 34.4286 11.141C34.3756 11.1489 34.3221 11.1532 34.2685 11.1539H33.7255C33.6195 11.1539 33.5135 11.1539 33.3995 11.161C33.3656 11.2492 33.3324 11.3295 33.3029 11.4098C33.0094 12.1983 32.7202 12.9869 32.4223 13.7754C32.2362 14.2684 32.0195 14.7494 31.7733 15.2156C31.6151 15.5251 31.429 15.8198 31.2173 16.0959C31.0898 16.2599 30.9446 16.4096 30.7846 16.5425C30.5908 16.7093 30.3575 16.8245 30.1067 16.8773C29.8825 16.9253 29.6494 16.9127 29.4317 16.8407C29.3738 16.8232 29.3199 16.7943 29.2734 16.7559C29.2268 16.7174 29.1884 16.6701 29.1605 16.6167C29.1325 16.5633 29.1156 16.5048 29.1106 16.4448C29.1057 16.3848 29.1129 16.3244 29.1317 16.2672C29.1461 16.2122 29.1763 16.1625 29.2187 16.1242C29.2612 16.086 29.3139 16.061 29.3704 16.0522C29.4364 16.0393 29.504 16.0364 29.5709 16.0436C29.6077 16.0444 29.6437 16.0547 29.6753 16.0736C29.7068 16.0924 29.7329 16.1191 29.751 16.151C29.769 16.1829 29.7784 16.2189 29.7782 16.2555C29.778 16.2921 29.7682 16.328 29.7497 16.3597C29.7175 16.4226 29.6822 16.4839 29.6438 16.5432C29.6511 16.5955 29.6779 16.6432 29.7189 16.6768C29.7599 16.7104 29.8121 16.7274 29.8652 16.7246C30.0764 16.7338 30.283 16.6617 30.4421 16.5232C30.5674 16.4217 30.6698 16.2952 30.7428 16.1518C30.8368 15.9753 30.9213 15.7939 30.9959 15.6085C31.195 15.0823 31.3846 14.5554 31.5728 14.0313C31.8849 13.152 32.1957 12.2717 32.5053 11.3904C32.541 11.3216 32.5588 11.2449 32.5572 11.1675C32.3554 11.1549 32.153 11.1566 31.9515 11.1725C31.8987 11.1767 31.8456 11.1767 31.7928 11.1725C31.7757 11.1733 31.759 11.1673 31.7463 11.1559C31.7336 11.1445 31.7259 11.1286 31.725 11.1116C31.724 11.0956 31.7263 11.0795 31.7316 11.0644C31.7369 11.0492 31.7452 11.0353 31.756 11.0234C31.7986 10.9918 31.8479 10.9705 31.9002 10.961C31.9798 10.9509 32.0601 10.9466 32.1404 10.9481H32.6286C32.6872 10.894 32.7279 10.8235 32.7454 10.746C32.8872 10.3791 33.0559 10.023 33.2502 9.68071C33.3785 9.45371 33.535 9.24368 33.7161 9.0556C33.9573 8.80085 34.2756 8.63143 34.6226 8.57315C34.8206 8.53477 35.0249 8.54189 35.2197 8.59396C35.3368 8.62545 35.4437 8.68671 35.5298 8.77173C35.5964 8.83418 35.6432 8.9146 35.6644 9.0031C35.6857 9.0916 35.6805 9.18434 35.6495 9.26995C35.636 9.31831 35.6081 9.36149 35.5695 9.39384C35.5309 9.4262 35.4834 9.44622 35.4332 9.45131C35.3733 9.45923 35.3127 9.45923 35.2529 9.45131C35.2159 9.44781 35.1803 9.43505 35.1495 9.41423C35.1188 9.39341 35.0939 9.36521 35.077 9.33224C35.0602 9.29926 35.052 9.26259 35.0532 9.22563C35.0545 9.18867 35.0651 9.15263 35.0841 9.12084C35.1022 9.08643 35.131 9.0556 35.1512 9.02119C35.1727 8.99491 35.1864 8.96309 35.1905 8.92942C35.1946 8.89575 35.1889 8.8616 35.1743 8.83097C35.1596 8.80034 35.1365 8.77447 35.1077 8.75637C35.0788 8.73827 35.0454 8.72868 35.0113 8.72872C34.886 8.70128 34.7555 8.70783 34.6336 8.74769C34.5117 8.78754 34.4028 8.85923 34.3183 8.95525C34.2186 9.06392 34.1368 9.18754 34.076 9.32156C33.9764 9.5402 33.8798 9.76029 33.7918 9.98395C33.6858 10.2449 33.5993 10.5101 33.5034 10.7725C33.4918 10.8105 33.481 10.8592 33.4572 10.9316Z" fill="white"/>
<path d="M33.5508 13.3904C33.5584 13.0072 33.6682 12.633 33.8688 12.3058C34.2004 11.7673 34.6856 11.3391 35.2628 11.0756C35.5253 10.9537 35.8134 10.8959 36.1029 10.9071C36.2849 10.9074 36.4639 10.9536 36.6231 11.0414C36.7822 11.1292 36.9164 11.2556 37.013 11.409C37.1591 11.635 37.2397 11.8967 37.246 12.1652C37.2709 12.588 37.1646 13.0081 36.9416 13.3689C36.6599 13.8343 36.2603 14.2181 35.7828 14.4821C35.4721 14.6581 35.1191 14.7468 34.7616 14.7388C34.494 14.739 34.2343 14.6486 34.0254 14.4825C33.8164 14.3163 33.6706 14.0843 33.6121 13.8248C33.5804 13.6836 33.5717 13.5359 33.5508 13.3904ZM34.2719 13.8205C34.2666 13.9133 34.2666 14.0065 34.2719 14.0993C34.2769 14.2144 34.3243 14.3238 34.4049 14.4065C34.4856 14.4892 34.5941 14.5396 34.7097 14.5481C34.7893 14.5591 34.8702 14.5591 34.9498 14.5481C35.1771 14.5152 35.3883 14.4121 35.5534 14.2535C35.7098 14.1072 35.8425 13.938 35.9472 13.7517C36.2577 13.2346 36.4576 12.6594 36.5342 12.062C36.5684 11.8643 36.5627 11.6618 36.5176 11.4663C36.4942 11.361 36.4352 11.2668 36.3504 11.1995C36.2657 11.1322 36.1602 11.0958 36.0517 11.0964C35.7942 11.0804 35.5407 11.165 35.345 11.3323C35.19 11.4605 35.0559 11.6119 34.9477 11.781C34.7652 12.0613 34.6152 12.3611 34.5005 12.6749C34.356 13.0396 34.2783 13.4271 34.2712 13.819L34.2719 13.8205Z" fill="white"/>
<path d="M38.2832 11.1576C38.3126 11.1367 38.3446 11.1196 38.3784 11.1067C38.4497 11.093 38.5221 11.0848 38.5947 11.0824C38.8297 11.0808 39.0638 11.0553 39.2935 11.0064C39.3136 11.0025 39.3338 10.9996 39.3541 10.9978C39.4601 10.9849 39.4983 11.0293 39.4673 11.1411C39.4486 11.2057 39.4219 11.2666 39.3952 11.3282C39.3188 11.5189 39.2409 11.7096 39.1608 11.9017C39.2236 11.9125 39.2329 11.8637 39.2531 11.8387C39.4063 11.644 39.5815 11.4674 39.7752 11.3125C39.8893 11.229 40.0099 11.1546 40.1358 11.0902C40.2704 11.0262 40.4219 11.0064 40.5685 11.0336C40.6533 11.0401 40.7326 11.0782 40.7903 11.1403C40.8481 11.2024 40.8801 11.2838 40.8801 11.3684C40.8881 11.4416 40.8778 11.5156 40.8501 11.5839C40.8225 11.6522 40.7782 11.7126 40.7214 11.7598C40.6607 11.8141 40.5824 11.8451 40.5007 11.8472C40.4792 11.8487 40.4575 11.8451 40.4376 11.8367C40.4176 11.8284 40.3999 11.8155 40.3859 11.7991C40.3719 11.7828 40.3619 11.7633 40.3568 11.7424C40.3517 11.7215 40.3516 11.6997 40.3565 11.6788C40.3655 11.6466 40.3718 11.6138 40.3753 11.5806C40.3818 11.5505 40.3804 11.5193 40.3713 11.4899C40.3622 11.4605 40.3456 11.4339 40.3231 11.4127C40.3006 11.3915 40.2731 11.3765 40.243 11.369C40.213 11.3614 40.1816 11.3618 40.1517 11.3698C40.0789 11.3814 40.0093 11.4075 39.9469 11.4465C39.8508 11.5083 39.7608 11.5789 39.6779 11.6573C39.4693 11.856 39.2858 12.0792 39.1312 12.3218C38.9564 12.5907 38.8022 12.8723 38.6697 13.1641L38.1022 14.4021L38.0567 14.4925C37.9442 14.7348 37.9442 14.7326 37.6846 14.7255C37.5981 14.7255 37.5108 14.7319 37.4243 14.7326C37.3716 14.7326 37.3183 14.7326 37.2498 14.7276C37.2602 14.679 37.2737 14.6311 37.2902 14.5842L38.6502 11.5075C38.6941 11.4342 38.7209 11.3522 38.7289 11.2673C38.6973 11.2513 38.6638 11.239 38.6293 11.2308C38.5758 11.2276 38.5221 11.2276 38.4685 11.2308C38.4339 11.2347 38.399 11.2301 38.3667 11.2173C38.3343 11.2045 38.3056 11.184 38.2832 11.1576V11.1576Z" fill="white"/>
</g>
<defs>
<clipPath id="clip0_360_5051">
<rect width="41.971" height="32" fill="white"/>
</clipPath>
</defs>
</svg>
